<svg width="1080" height="1080" viewBox="0 0 1080 1080" fill="none" xmlns="http://www.w3.org/2000/svg">
<rect width="1080" height="1080" rx="120.637" fill="#E7704C"/>
<g clip-path="url(#clip0_6005_14217)">
<path d="M169.038 242.654C167.056 205.583 200.932 204.873 223.489 226.186C275.869 265.826 328.053 305.735 380.433 345.4C384.152 348.214 385.522 351.101 385.522 355.604C385.081 520.844 386.672 686.158 385.399 851.35C382.733 881.618 347.943 877.459 331.062 860.673C284.994 825.437 239.367 789.614 193.079 754.648C165.702 733.971 169.259 740.186 168.892 706.492L168.958 242.678L169.038 242.654Z" fill="#1E1E1E"/>
<path d="M916.695 242.654C918.677 205.583 884.801 204.873 862.244 226.186C809.864 265.826 757.68 305.735 705.3 345.4C701.581 348.214 700.211 351.101 700.211 355.604C700.652 520.844 699.061 686.158 700.334 851.35C703 881.618 737.79 877.459 754.671 860.673C800.739 825.437 846.366 789.614 892.654 754.648C920.031 733.971 916.474 740.186 916.841 706.492L916.775 242.678L916.695 242.654Z" fill="#1E1E1E"/>
<path d="M653.137 695.139C653.382 710.407 647.493 720.782 635.652 729.322C610.477 747.478 585.596 766.05 560.544 784.378C549.143 792.722 539.7 792.306 528.421 783.791C503.834 765.243 479.369 746.475 454.316 728.539C442.402 719.999 432.501 710.652 432.599 695.775L432.62 385.011C570.877 475.423 514.952 475.275 653.236 385.016L653.137 695.139Z" fill="#1E1E1E"/>
</g>
<defs>
<clipPath id="clip0_6005_14217">
<rect width="747.949" height="661.648" fill="white" transform="translate(168.892 212.042)"/>
</clipPath>
</defs>
</svg>
