<svg width="1064" height="301" viewBox="0 0 1064 301" fill="none" xmlns="http://www.w3.org/2000/svg">
<path d="M505.419 72.9343V228.716H474.93V127.68L431.089 200.007H427.528L383.687 127.903V228.716H352.976V72.9343H384.577L429.309 146.597L473.817 72.9343H505.419ZM669.73 208.464C654.003 224.042 634.865 231.831 612.313 231.831C589.762 231.831 570.623 224.042 554.897 208.464C539.319 192.738 531.53 173.524 531.53 150.825C531.53 128.125 539.319 108.987 554.897 93.4084C570.623 77.6819 589.762 69.8187 612.313 69.8187C634.865 69.8187 654.003 77.6819 669.73 93.4084C685.456 108.987 693.32 128.125 693.32 150.825C693.32 173.524 685.456 192.738 669.73 208.464ZM576.484 187.545C586.127 197.04 598.071 201.788 612.313 201.788C626.556 201.788 638.499 197.04 648.143 187.545C657.787 177.901 662.608 165.661 662.608 150.825C662.608 135.989 657.787 123.749 648.143 114.105C638.499 104.461 626.556 99.6397 612.313 99.6397C598.071 99.6397 586.127 104.461 576.484 114.105C566.84 123.749 562.018 135.989 562.018 150.825C562.018 165.661 566.84 177.901 576.484 187.545ZM777.195 72.9343C792.179 72.9343 804.79 77.9786 815.027 88.0673C825.264 98.156 830.383 110.544 830.383 125.232C830.383 139.92 825.264 152.309 815.027 162.397C804.79 172.486 792.179 177.53 777.195 177.53H749.822V228.716H719.111V72.9343H777.195ZM777.195 148.822C783.723 148.822 789.138 146.597 793.441 142.146C797.743 137.546 799.894 131.909 799.894 125.232C799.894 118.408 797.743 112.77 793.441 108.319C789.138 103.868 783.723 101.643 777.195 101.643H749.822V148.822H777.195ZM854.583 72.9343H885.294V228.716H854.583V72.9343ZM980.204 72.9343C1001.57 72.9343 1019.37 80.4266 1033.62 95.4113C1048.01 110.396 1055.2 128.867 1055.2 150.825C1055.2 172.783 1048.01 191.254 1033.62 206.239C1019.37 221.223 1001.57 228.716 980.204 228.716H918.337V72.9343H980.204ZM980.204 199.34C993.705 199.34 1004.68 194.889 1013.14 185.987C1021.6 176.937 1025.83 165.216 1025.83 150.825C1025.83 136.434 1021.6 124.787 1013.14 115.885C1004.68 106.835 993.705 102.31 980.204 102.31H949.048V199.34H980.204Z" fill="white"/>
<rect x="0.931152" y="0.0415039" width="300.339" height="300.339" rx="33.5482" fill="white"/>
<g clip-path="url(#clip0_6005_14189)">
<path d="M47.939 67.5212C47.3879 57.2121 56.8085 57.0147 63.0813 62.9416C77.6478 73.9652 92.1598 85.0637 106.726 96.0941C107.76 96.8766 108.141 97.6796 108.141 98.9316C108.019 144.884 108.461 190.856 108.107 236.795C107.366 245.212 97.6911 244.055 92.9966 239.387C80.1855 229.588 67.4969 219.626 54.6245 209.902C47.0113 204.152 48.0004 205.881 47.8984 196.511L47.9167 67.528L47.939 67.5212Z" fill="#1E1E1E"/>
<path d="M255.857 67.5212C256.408 57.2121 246.987 57.0147 240.714 62.9416C226.148 73.9652 211.636 85.0637 197.07 96.0941C196.035 96.8766 195.654 97.6796 195.654 98.9316C195.777 144.884 195.335 190.856 195.688 236.795C196.43 245.212 206.105 244.055 210.799 239.387C223.61 229.588 236.299 219.626 249.171 209.902C256.784 204.152 255.795 205.881 255.897 196.511L255.879 67.528L255.857 67.5212Z" fill="#1E1E1E"/>
<path d="M182.563 193.353C182.631 197.6 180.994 200.485 177.701 202.86C170.7 207.909 163.781 213.073 156.814 218.17C153.643 220.49 151.017 220.375 147.881 218.007C141.043 212.849 134.24 207.63 127.273 202.642C123.959 200.267 121.206 197.668 121.233 193.53L121.239 107.109C159.687 132.252 144.135 132.211 182.591 107.111L182.563 193.353Z" fill="#1E1E1E"/>
</g>
<defs>
<clipPath id="clip0_6005_14189">
<rect width="207.999" height="183.999" fill="white" transform="translate(47.8986 59.0088)"/>
</clipPath>
</defs>
</svg>
