<svg width="700" height="320" viewBox="0 0 700 320" fill="none" xmlns="http://www.w3.org/2000/svg">
<g clip-path="url(#clip0_5590_155)">
<mask id="mask0_5590_155" style="mask-type:luminance" maskUnits="userSpaceOnUse" x="0" y="0" width="700" height="320">
<path d="M684 0H16C7.16344 0 0 7.16344 0 16V304C0 312.837 7.16344 320 16 320H684C692.837 320 700 312.837 700 304V16C700 7.16344 692.837 0 684 0Z" fill="white"/>
</mask>
<g mask="url(#mask0_5590_155)">
<path d="M684 0H16C7.16344 0 0 7.16344 0 16V304C0 312.837 7.16344 320 16 320H684C692.837 320 700 312.837 700 304V16C700 7.16344 692.837 0 684 0Z" fill="url(#paint0_linear_5590_155)"/>
<g opacity="0.8" filter="url(#filter0_f_5590_155)">
<path d="M660 100C748.366 100 820 28.3656 820 -60C820 -148.366 748.366 -220 660 -220C571.634 -220 500 -148.366 500 -60C500 28.3656 571.634 100 660 100Z" fill="#4018E2" fill-opacity="0.22"/>
</g>
<g opacity="0.8" filter="url(#filter1_f_5590_155)">
<path d="M20 373C108.366 373 180 301.366 180 213C180 124.634 108.366 53 20 53C-68.3656 53 -140 124.634 -140 213C-140 301.366 -68.3656 373 20 373Z" fill="#E7704C" fill-opacity="0.33"/>
</g>
<g opacity="0.8" filter="url(#filter2_f_5590_155)">
</g>
<g opacity="0.8" filter="url(#filter3_f_5590_155)">
<path d="M20 573C108.366 573 180 501.366 180 413C180 324.634 108.366 253 20 253C-68.3656 253 -140 324.634 -140 413C-140 501.366 -68.3656 573 20 573Z" fill="#4018E2" fill-opacity="0.22"/>
</g>
<path opacity="0.2" d="M0 50H700" stroke="url(#paint1_radial_5590_155)" stroke-dasharray="4 4"/>
<path opacity="0.1" d="M0 82H700" stroke="url(#paint2_radial_5590_155)" stroke-dasharray="4 4"/>
<path opacity="0.2" d="M239 0V320" stroke="url(#paint3_radial_5590_155)" stroke-dasharray="4 4"/>
<path opacity="0.1" d="M271 0V320" stroke="url(#paint4_radial_5590_155)" stroke-dasharray="4 4"/>
<path opacity="0.2" d="M461 0V320" stroke="url(#paint5_radial_5590_155)" stroke-dasharray="4 4"/>
<path opacity="0.1" d="M429 0V320" stroke="url(#paint6_radial_5590_155)" stroke-dasharray="4 4"/>
<path opacity="0.2" d="M0 271H700" stroke="url(#paint7_radial_5590_155)" stroke-dasharray="4 4"/>
<path opacity="0.1" d="M0 239H700" stroke="url(#paint8_radial_5590_155)" stroke-dasharray="4 4"/>
<g style="mix-blend-mode:overlay" opacity="0.1">
<path d="M0 160H700" stroke="url(#paint9_linear_5590_155)"/>
</g>
<g style="mix-blend-mode:overlay" opacity="0.2">
<path d="M511 -1L189 321" stroke="url(#paint10_linear_5590_155)"/>
</g>
<g style="mix-blend-mode:overlay" opacity="0.2">
<path d="M511 321L189 -1" stroke="url(#paint11_linear_5590_155)"/>
</g>
<g style="mix-blend-mode:overlay" opacity="0.1">
<path d="M350 271C411.304 271 461 221.304 461 160C461 98.6964 411.304 49 350 49C288.696 49 239 98.6964 239 160C239 221.304 288.696 271 350 271Z" stroke="white"/>
</g>
<g style="mix-blend-mode:overlay" opacity="0.1">
<path d="M350 239C393.63 239 429 203.63 429 160C429 116.37 393.63 81 350 81C306.37 81 271 116.37 271 160C271 203.63 306.37 239 350 239Z" stroke="white"/>
</g>
</g>
<path d="M318.522 132.02C318.355 128.898 321.207 128.839 323.107 130.633C327.517 133.971 331.912 137.332 336.322 140.672C336.635 140.909 336.751 141.152 336.751 141.531C336.714 155.445 336.848 169.366 336.74 183.276C336.516 185.824 333.586 185.474 332.165 184.061C328.286 181.094 324.444 178.077 320.546 175.133C318.241 173.392 318.54 173.915 318.509 171.078L318.515 132.022L318.522 132.02Z" fill="white"/>
<path d="M381.478 132.02C381.645 128.898 378.793 128.839 376.893 130.633C372.483 133.971 368.088 137.332 363.678 140.672C363.364 140.909 363.249 141.152 363.249 141.531C363.286 155.445 363.152 169.366 363.259 183.276C363.484 185.824 366.413 185.474 367.835 184.061C371.714 181.094 375.556 178.077 379.454 175.133C381.759 173.392 381.46 173.915 381.491 171.078L381.485 132.022L381.478 132.02Z" fill="white"/>
<path d="M359.285 170.122C359.306 171.408 358.81 172.281 357.813 173C355.693 174.529 353.598 176.093 351.489 177.636C350.529 178.339 349.733 178.304 348.784 177.587C346.713 176.025 344.653 174.445 342.544 172.934C341.54 172.215 340.707 171.428 340.715 170.175L340.717 144.007C352.359 151.621 347.649 151.608 359.294 144.008L359.285 170.122Z" fill="white"/>
</g>
<defs>
<filter id="filter0_f_5590_155" x="260" y="-460" width="800" height="800" filterUnits="userSpaceOnUse" color-interpolation-filters="sRGB">
<feFlood flood-opacity="0" result="BackgroundImageFix"/>
<feBlend mode="normal" in="SourceGraphic" in2="BackgroundImageFix" result="shape"/>
<feGaussianBlur stdDeviation="120" result="effect1_foregroundBlur_5590_155"/>
</filter>
<filter id="filter1_f_5590_155" x="-380" y="-187" width="800" height="800" filterUnits="userSpaceOnUse" color-interpolation-filters="sRGB">
<feFlood flood-opacity="0" result="BackgroundImageFix"/>
<feBlend mode="normal" in="SourceGraphic" in2="BackgroundImageFix" result="shape"/>
<feGaussianBlur stdDeviation="120" result="effect1_foregroundBlur_5590_155"/>
</filter>
<filter id="filter2_f_5590_155" x="260" y="80" width="800" height="800" filterUnits="userSpaceOnUse" color-interpolation-filters="sRGB">
<feFlood flood-opacity="0" result="BackgroundImageFix"/>
<feBlend mode="normal" in="SourceGraphic" in2="BackgroundImageFix" result="shape"/>
<feGaussianBlur stdDeviation="120" result="effect1_foregroundBlur_5590_155"/>
</filter>
<filter id="filter3_f_5590_155" x="-380" y="13" width="800" height="800" filterUnits="userSpaceOnUse" color-interpolation-filters="sRGB">
<feFlood flood-opacity="0" result="BackgroundImageFix"/>
<feBlend mode="normal" in="SourceGraphic" in2="BackgroundImageFix" result="shape"/>
<feGaussianBlur stdDeviation="120" result="effect1_foregroundBlur_5590_155"/>
</filter>
<linearGradient id="paint0_linear_5590_155" x1="1.27814e-05" y1="320" x2="710.784" y2="26.0793" gradientUnits="userSpaceOnUse">
<stop stop-color="#E7704C" stop-opacity="0.09"/>
<stop offset="0.729167" stop-color="#E7704C" stop-opacity="0.08"/>
</linearGradient>
<radialGradient id="paint1_radial_5590_155" cx="0" cy="0" r="1" gradientUnits="userSpaceOnUse" gradientTransform="translate(nan nan) rotate(nan) scale(nan nan)">
<stop offset="0.348958" stop-color="#84FFD3"/>
<stop offset="0.880208" stop-color="#18E299" stop-opacity="0"/>
</radialGradient>
<radialGradient id="paint2_radial_5590_155" cx="0" cy="0" r="1" gradientUnits="userSpaceOnUse" gradientTransform="translate(nan nan) rotate(nan) scale(nan nan)">
<stop offset="0.348958" stop-color="#84FFD3"/>
<stop offset="0.880208" stop-color="#18E299" stop-opacity="0"/>
</radialGradient>
<radialGradient id="paint3_radial_5590_155" cx="0" cy="0" r="1" gradientUnits="userSpaceOnUse" gradientTransform="translate(nan nan) rotate(nan) scale(nan nan)">
<stop offset="0.348958" stop-color="#84FFD3"/>
<stop offset="0.880208" stop-color="#18E299" stop-opacity="0"/>
</radialGradient>
<radialGradient id="paint4_radial_5590_155" cx="0" cy="0" r="1" gradientUnits="userSpaceOnUse" gradientTransform="translate(nan nan) rotate(nan) scale(nan nan)">
<stop offset="0.348958" stop-color="#84FFD3"/>
<stop offset="0.880208" stop-color="#18E299" stop-opacity="0"/>
</radialGradient>
<radialGradient id="paint5_radial_5590_155" cx="0" cy="0" r="1" gradientUnits="userSpaceOnUse" gradientTransform="translate(nan nan) rotate(nan) scale(nan nan)">
<stop offset="0.348958" stop-color="#84FFD3"/>
<stop offset="0.880208" stop-color="#18E299" stop-opacity="0"/>
</radialGradient>
<radialGradient id="paint6_radial_5590_155" cx="0" cy="0" r="1" gradientUnits="userSpaceOnUse" gradientTransform="translate(nan nan) rotate(nan) scale(nan nan)">
<stop offset="0.348958" stop-color="#84FFD3"/>
<stop offset="0.880208" stop-color="#18E299" stop-opacity="0"/>
</radialGradient>
<radialGradient id="paint7_radial_5590_155" cx="0" cy="0" r="1" gradientUnits="userSpaceOnUse" gradientTransform="translate(nan nan) rotate(nan) scale(nan nan)">
<stop offset="0.348958" stop-color="#84FFD3"/>
<stop offset="0.880208" stop-color="#18E299" stop-opacity="0"/>
</radialGradient>
<radialGradient id="paint8_radial_5590_155" cx="0" cy="0" r="1" gradientUnits="userSpaceOnUse" gradientTransform="translate(nan nan) rotate(nan) scale(nan nan)">
<stop offset="0.348958" stop-color="#84FFD3"/>
<stop offset="0.880208" stop-color="#18E299" stop-opacity="0"/>
</radialGradient>
<linearGradient id="paint9_linear_5590_155" x1="nan" y1="nan" x2="nan" y2="nan" gradientUnits="userSpaceOnUse">
<stop stop-color="white" stop-opacity="0.1"/>
<stop offset="0.5" stop-color="white"/>
<stop offset="1" stop-color="white" stop-opacity="0.1"/>
</linearGradient>
<linearGradient id="paint10_linear_5590_155" x1="511" y1="-1" x2="189" y2="321" gradientUnits="userSpaceOnUse">
<stop stop-color="white" stop-opacity="0.1"/>
<stop offset="0.5" stop-color="white"/>
<stop offset="1" stop-color="white" stop-opacity="0.1"/>
</linearGradient>
<linearGradient id="paint11_linear_5590_155" x1="511" y1="321" x2="189" y2="-1" gradientUnits="userSpaceOnUse">
<stop stop-color="white" stop-opacity="0.1"/>
<stop offset="0.5" stop-color="white"/>
<stop offset="1" stop-color="white" stop-opacity="0.1"/>
</linearGradient>
<clipPath id="clip0_5590_155">
<rect width="700" height="320" fill="white"/>
</clipPath>
</defs>
</svg>
